<mxfile host="app.diagrams.net" modified="2023-11-18T07:43:50.246Z" agent="Mozilla/5.0 (Windows NT 10.0; Win64; x64) AppleWebKit/537.36 (KHTML, like Gecko) Chrome/119.0.0.0 Safari/537.36 Edg/119.0.0.0" etag="p7Iooi3FJ0QXzTXLvDVn" version="22.1.2" type="github">
  <diagram name="第 1 页" id="HYvwxCKRt6-kvIY1RSBt">
    <mxGraphModel dx="1366" dy="1933" grid="1" gridSize="10" guides="1" tooltips="1" connect="1" arrows="1" fold="1" page="1" pageScale="1" pageWidth="827" pageHeight="1169" math="0" shadow="0">
      <root>
        <mxCell id="0" />
        <mxCell id="1" parent="0" />
        <mxCell id="2n91kEc1MEfVxPzDMiQJ-1" value="基&#xa;于&#xa;深&#xa;度&#xa;学&#xa;习&#xa;的&#xa;输&#xa;气&#xa;管&#xa;道&#xa;故&#xa;障&#xa;诊&#xa;断&#xa;方&#xa;法&#xa;研&#xa;究" style="rounded=1;glass=0;fontFamily=Helvetica;fontStyle=1;fontSize=18;" parent="1" vertex="1">
          <mxGeometry x="9" y="-948.19" width="31" height="485" as="geometry" />
        </mxCell>
        <mxCell id="2n91kEc1MEfVxPzDMiQJ-2" value="" style="shape=curlyBracket;rounded=1;labelPosition=left;verticalLabelPosition=middle;align=right;verticalAlign=middle;fontFamily=Helvetica;fontStyle=1;" parent="1" vertex="1">
          <mxGeometry x="47" y="-990" width="12" height="570" as="geometry" />
        </mxCell>
        <mxCell id="2n91kEc1MEfVxPzDMiQJ-3" value="" style="group;fontFamily=Helvetica;fontStyle=1;" parent="1" vertex="1" connectable="0">
          <mxGeometry x="269" y="-975.448275862069" width="460" height="111.82827586206895" as="geometry" />
        </mxCell>
        <mxCell id="2n91kEc1MEfVxPzDMiQJ-4" value="" style="rounded=0;dashed=1;fontFamily=Helvetica;fontStyle=1;" parent="2n91kEc1MEfVxPzDMiQJ-3" vertex="1">
          <mxGeometry x="-1" y="26.896551724137908" width="460" height="71.72413793103448" as="geometry" />
        </mxCell>
        <mxCell id="2n91kEc1MEfVxPzDMiQJ-5" value="基于机器学习的输气管道故障诊断方法算法的对比分析" style="rounded=0;fontFamily=Helvetica;fontStyle=1;fontSize=16;" parent="2n91kEc1MEfVxPzDMiQJ-3" vertex="1">
          <mxGeometry width="460" height="26.89655172413793" as="geometry" />
        </mxCell>
        <mxCell id="2n91kEc1MEfVxPzDMiQJ-6" value="EEMD" style="rounded=0;fontFamily=Helvetica;fontSize=14;fontStyle=1;" parent="2n91kEc1MEfVxPzDMiQJ-3" vertex="1">
          <mxGeometry x="86" y="46.62068965517244" width="60" height="16.137931034482758" as="geometry" />
        </mxCell>
        <mxCell id="2n91kEc1MEfVxPzDMiQJ-7" value="ICA" style="rounded=0;fontFamily=Helvetica;fontSize=14;fontStyle=1;" parent="2n91kEc1MEfVxPzDMiQJ-3" vertex="1">
          <mxGeometry x="212" y="51.310344827586164" width="43" height="26.89655172413793" as="geometry" />
        </mxCell>
        <mxCell id="2n91kEc1MEfVxPzDMiQJ-8" value="故障诊断&#xa;对比分析" style="rounded=0;fontFamily=Helvetica;fontSize=14;fontStyle=1;" parent="2n91kEc1MEfVxPzDMiQJ-3" vertex="1">
          <mxGeometry x="382" y="42.59" width="70" height="44.83" as="geometry" />
        </mxCell>
        <mxCell id="2n91kEc1MEfVxPzDMiQJ-9" value="" style="edgeStyle=orthogonalEdgeStyle;rounded=0;orthogonalLoop=1;jettySize=auto;exitX=1;exitY=0.5;exitDx=0;exitDy=0;fontFamily=Helvetica;fontStyle=1;" parent="2n91kEc1MEfVxPzDMiQJ-3" target="2n91kEc1MEfVxPzDMiQJ-8" edge="1">
          <mxGeometry relative="1" as="geometry">
            <mxPoint x="338" y="64.55172413793105" as="sourcePoint" />
          </mxGeometry>
        </mxCell>
        <mxCell id="2n91kEc1MEfVxPzDMiQJ-10" value="" style="endArrow=classic;rounded=0;exitX=1;exitY=0.5;exitDx=0;exitDy=0;entryX=0;entryY=0.5;entryDx=0;entryDy=0;fontFamily=Helvetica;fontStyle=1;" parent="2n91kEc1MEfVxPzDMiQJ-3" source="2n91kEc1MEfVxPzDMiQJ-6" target="2n91kEc1MEfVxPzDMiQJ-7" edge="1">
          <mxGeometry width="50" height="50" relative="1" as="geometry">
            <mxPoint x="195" y="71.72413793103453" as="sourcePoint" />
            <mxPoint x="245" y="26.896551724137908" as="targetPoint" />
          </mxGeometry>
        </mxCell>
        <mxCell id="2n91kEc1MEfVxPzDMiQJ-11" value="FuzzyEn" style="rounded=0;fontFamily=Helvetica;fontSize=14;fontStyle=1;" parent="2n91kEc1MEfVxPzDMiQJ-3" vertex="1">
          <mxGeometry x="86" y="70.82758620689651" width="60" height="16.137931034482758" as="geometry" />
        </mxCell>
        <mxCell id="2n91kEc1MEfVxPzDMiQJ-12" value="提取IMF分量" style="text;strokeColor=none;fillColor=none;align=center;verticalAlign=middle;rounded=0;rotation=10;fontFamily=Helvetica;fontStyle=1;fontSize=11;" parent="2n91kEc1MEfVxPzDMiQJ-3" vertex="1">
          <mxGeometry x="146" y="35.86" width="63" height="26.9" as="geometry" />
        </mxCell>
        <mxCell id="2n91kEc1MEfVxPzDMiQJ-13" value="" style="endArrow=classic;rounded=0;exitX=1;exitY=0.5;exitDx=0;exitDy=0;entryX=0;entryY=0.5;entryDx=0;entryDy=0;fontFamily=Helvetica;fontStyle=1;" parent="2n91kEc1MEfVxPzDMiQJ-3" source="2n91kEc1MEfVxPzDMiQJ-11" target="2n91kEc1MEfVxPzDMiQJ-7" edge="1">
          <mxGeometry width="50" height="50" relative="1" as="geometry">
            <mxPoint x="155" y="125.51724137931035" as="sourcePoint" />
            <mxPoint x="205" y="62.75862068965512" as="targetPoint" />
          </mxGeometry>
        </mxCell>
        <mxCell id="2n91kEc1MEfVxPzDMiQJ-14" value="设置噪声阈值" style="text;strokeColor=none;fillColor=none;align=center;verticalAlign=middle;rounded=0;rotation=-15;fontFamily=Helvetica;fontStyle=1;fontSize=11;" parent="2n91kEc1MEfVxPzDMiQJ-3" vertex="1">
          <mxGeometry x="143.5" y="76.21" width="68" height="8.97" as="geometry" />
        </mxCell>
        <mxCell id="2n91kEc1MEfVxPzDMiQJ-16" value="CNN-LSTM&#xa;分类器" style="rounded=0;fontFamily=Helvetica;fontSize=14;fontStyle=1;" parent="2n91kEc1MEfVxPzDMiQJ-3" vertex="1">
          <mxGeometry x="284" y="44" width="80" height="40" as="geometry" />
        </mxCell>
        <mxCell id="2n91kEc1MEfVxPzDMiQJ-42" value="SPS&#xa;故障数据" style="rounded=0;fontFamily=Helvetica;fontSize=14;fontStyle=1;" parent="2n91kEc1MEfVxPzDMiQJ-3" vertex="1">
          <mxGeometry x="8" y="46.61827586206891" width="63" height="40" as="geometry" />
        </mxCell>
        <mxCell id="zsT4bbfBKMu0EkgSFM5R-4" value="" style="endArrow=classic;rounded=0;entryX=0;entryY=0.5;entryDx=0;entryDy=0;exitX=1;exitY=0.5;exitDx=0;exitDy=0;" edge="1" parent="2n91kEc1MEfVxPzDMiQJ-3" source="2n91kEc1MEfVxPzDMiQJ-7" target="2n91kEc1MEfVxPzDMiQJ-16">
          <mxGeometry width="50" height="50" relative="1" as="geometry">
            <mxPoint x="131" y="144.44827586206895" as="sourcePoint" />
            <mxPoint x="181" y="94.44827586206895" as="targetPoint" />
          </mxGeometry>
        </mxCell>
        <mxCell id="2n91kEc1MEfVxPzDMiQJ-20" value="" style="group;fontFamily=Helvetica;fontStyle=1;" parent="1" vertex="1" connectable="0">
          <mxGeometry x="279" y="-725.6182758620689" width="460" height="98.62068965517244" as="geometry" />
        </mxCell>
        <mxCell id="2n91kEc1MEfVxPzDMiQJ-21" value="" style="rounded=0;dashed=1;fontFamily=Helvetica;fontStyle=1;" parent="2n91kEc1MEfVxPzDMiQJ-20" vertex="1">
          <mxGeometry y="-5.1034482758620925" width="460" height="71.72413793103448" as="geometry" />
        </mxCell>
        <mxCell id="2n91kEc1MEfVxPzDMiQJ-22" value="基于深度域自适应网络的输气管道系统故障诊断模型" style="rounded=0;fontFamily=Helvetica;fontStyle=1;fontSize=16;" parent="2n91kEc1MEfVxPzDMiQJ-20" vertex="1">
          <mxGeometry y="-31" width="460" height="26.89655172413793" as="geometry" />
        </mxCell>
        <mxCell id="2n91kEc1MEfVxPzDMiQJ-23" value="模拟数据" style="rounded=0;fontFamily=Helvetica;fontSize=14;fontStyle=1;" parent="2n91kEc1MEfVxPzDMiQJ-20" vertex="1">
          <mxGeometry x="17" y="10" width="60" height="20" as="geometry" />
        </mxCell>
        <mxCell id="2n91kEc1MEfVxPzDMiQJ-24" value="识别性能&#xa;增强" style="rounded=0;fontFamily=Helvetica;fontSize=14;fontStyle=1;" parent="2n91kEc1MEfVxPzDMiQJ-20" vertex="1">
          <mxGeometry x="295" y="14.840000000000003" width="64" height="38.77" as="geometry" />
        </mxCell>
        <mxCell id="2n91kEc1MEfVxPzDMiQJ-25" value="场景迁移&#xa;应用" style="rounded=0;fontFamily=Helvetica;fontSize=14;fontStyle=1;" parent="2n91kEc1MEfVxPzDMiQJ-20" vertex="1">
          <mxGeometry x="389" y="12.587931034482722" width="60" height="44.82758620689655" as="geometry" />
        </mxCell>
        <mxCell id="2n91kEc1MEfVxPzDMiQJ-26" value="" style="edgeStyle=orthogonalEdgeStyle;rounded=0;orthogonalLoop=1;jettySize=auto;exitX=1;exitY=0.5;exitDx=0;exitDy=0;fontFamily=Helvetica;entryX=0;entryY=0.5;entryDx=0;entryDy=0;fontStyle=1;" parent="2n91kEc1MEfVxPzDMiQJ-20" source="2n91kEc1MEfVxPzDMiQJ-24" target="2n91kEc1MEfVxPzDMiQJ-25" edge="1">
          <mxGeometry relative="1" as="geometry">
            <mxPoint x="336" y="34.54172413793104" as="sourcePoint" />
            <mxPoint x="384" y="34.9882758620689" as="targetPoint" />
            <Array as="points">
              <mxPoint x="354" y="35" />
            </Array>
          </mxGeometry>
        </mxCell>
        <mxCell id="2n91kEc1MEfVxPzDMiQJ-27" value="真实数据" style="rounded=0;fontFamily=Helvetica;fontSize=14;fontStyle=1;" parent="2n91kEc1MEfVxPzDMiQJ-20" vertex="1">
          <mxGeometry x="17" y="40" width="60" height="16.97" as="geometry" />
        </mxCell>
        <mxCell id="2n91kEc1MEfVxPzDMiQJ-28" value="" style="edgeStyle=orthogonalEdgeStyle;rounded=0;orthogonalLoop=1;jettySize=auto;exitX=1;exitY=0.5;exitDx=0;exitDy=0;entryX=0;entryY=0.5;entryDx=0;entryDy=0;fontFamily=Helvetica;fontStyle=1;" parent="2n91kEc1MEfVxPzDMiQJ-20" source="2n91kEc1MEfVxPzDMiQJ-29" target="2n91kEc1MEfVxPzDMiQJ-24" edge="1">
          <mxGeometry relative="1" as="geometry" />
        </mxCell>
        <mxCell id="2n91kEc1MEfVxPzDMiQJ-29" value="域对抗迁移" style="rounded=0;fontFamily=Helvetica;fontSize=14;fontStyle=1;" parent="2n91kEc1MEfVxPzDMiQJ-20" vertex="1">
          <mxGeometry x="196" y="19.450000000000003" width="74" height="30.64" as="geometry" />
        </mxCell>
        <mxCell id="2n91kEc1MEfVxPzDMiQJ-30" value="" style="edgeStyle=orthogonalEdgeStyle;rounded=0;orthogonalLoop=1;jettySize=auto;exitX=1;exitY=0.5;exitDx=0;exitDy=0;entryX=0;entryY=0.5;entryDx=0;entryDy=0;fontFamily=Helvetica;fontStyle=1;" parent="2n91kEc1MEfVxPzDMiQJ-20" source="2n91kEc1MEfVxPzDMiQJ-31" target="2n91kEc1MEfVxPzDMiQJ-29" edge="1">
          <mxGeometry relative="1" as="geometry" />
        </mxCell>
        <mxCell id="2n91kEc1MEfVxPzDMiQJ-31" value="特征&#xa;提取网络" style="rounded=0;fontFamily=Helvetica;fontSize=14;fontStyle=1;" parent="2n91kEc1MEfVxPzDMiQJ-20" vertex="1">
          <mxGeometry x="100" y="15" width="68.5" height="40.64" as="geometry" />
        </mxCell>
        <mxCell id="2n91kEc1MEfVxPzDMiQJ-32" value="" style="shape=curlyBracket;rounded=1;flipH=1;labelPosition=right;verticalLabelPosition=middle;align=left;verticalAlign=middle;fontFamily=Helvetica;fontStyle=1;" parent="2n91kEc1MEfVxPzDMiQJ-20" vertex="1">
          <mxGeometry x="92" y="7.0499999999999545" width="5" height="55.45" as="geometry" />
        </mxCell>
        <mxCell id="2n91kEc1MEfVxPzDMiQJ-34" value="管道系统层面&#xa;高维时间序列&#xa;模式识别" style="rounded=1;align=center;fontFamily=Helvetica;fontStyle=1;fontSize=14;" parent="1" vertex="1">
          <mxGeometry x="71.5" y="-953" width="98" height="68.4" as="geometry" />
        </mxCell>
        <mxCell id="2n91kEc1MEfVxPzDMiQJ-35" value="具有时空特征&#xa;挖掘能力的&#xa;深度学习模型" style="text;strokeColor=none;fillColor=none;align=center;verticalAlign=middle;rounded=0;fontFamily=Helvetica;fontSize=14;fontStyle=1;" parent="1" vertex="1">
          <mxGeometry x="164.25" y="-962.14" width="101" height="30" as="geometry" />
        </mxCell>
        <mxCell id="2n91kEc1MEfVxPzDMiQJ-56" value="" style="endArrow=classic;rounded=0;fontFamily=Helvetica;fontStyle=1;" parent="1" edge="1">
          <mxGeometry width="50" height="50" relative="1" as="geometry">
            <mxPoint x="180" y="-917" as="sourcePoint" />
            <mxPoint x="250" y="-917" as="targetPoint" />
          </mxGeometry>
        </mxCell>
        <mxCell id="2n91kEc1MEfVxPzDMiQJ-57" value="识别模型的&#xa;迁移应用" style="rounded=1;fontFamily=Helvetica;fontStyle=1;fontSize=14;" parent="1" vertex="1">
          <mxGeometry x="76.75" y="-734.5300000000001" width="87.5" height="37.69" as="geometry" />
        </mxCell>
        <mxCell id="2n91kEc1MEfVxPzDMiQJ-58" value="" style="endArrow=classic;rounded=0;fontFamily=Helvetica;fontStyle=1;" parent="1" edge="1">
          <mxGeometry width="50" height="50" relative="1" as="geometry">
            <mxPoint x="173" y="-719.34" as="sourcePoint" />
            <mxPoint x="243" y="-719.34" as="targetPoint" />
          </mxGeometry>
        </mxCell>
        <mxCell id="2n91kEc1MEfVxPzDMiQJ-59" value="" style="group;fontFamily=Helvetica;fontStyle=1;" parent="1" vertex="1" connectable="0">
          <mxGeometry x="269" y="-558.9982758620689" width="470" height="98.62068965517244" as="geometry" />
        </mxCell>
        <mxCell id="2n91kEc1MEfVxPzDMiQJ-60" value="" style="rounded=0;dashed=1;fontFamily=Helvetica;fontStyle=1;" parent="2n91kEc1MEfVxPzDMiQJ-59" vertex="1">
          <mxGeometry y="49.89655172413791" width="460" height="71.72413793103448" as="geometry" />
        </mxCell>
        <mxCell id="2n91kEc1MEfVxPzDMiQJ-61" value="基于本体的输气管道诊断本体知识推理" style="rounded=0;fontFamily=Helvetica;fontStyle=1;fontSize=16;" parent="2n91kEc1MEfVxPzDMiQJ-59" vertex="1">
          <mxGeometry y="23" width="460" height="26.89655172413793" as="geometry" />
        </mxCell>
        <mxCell id="2n91kEc1MEfVxPzDMiQJ-62" value="" style="edgeStyle=orthogonalEdgeStyle;rounded=0;orthogonalLoop=1;jettySize=auto;entryX=0;entryY=0.5;entryDx=0;entryDy=0;fontStyle=1;fontFamily=Helvetica;" parent="2n91kEc1MEfVxPzDMiQJ-59" source="2n91kEc1MEfVxPzDMiQJ-63" target="2n91kEc1MEfVxPzDMiQJ-70" edge="1">
          <mxGeometry relative="1" as="geometry" />
        </mxCell>
        <mxCell id="2n91kEc1MEfVxPzDMiQJ-63" value="本体专业&#xa;领域范畴" style="rounded=0;fontFamily=Helvetica;fontSize=14;fontStyle=1;" parent="2n91kEc1MEfVxPzDMiQJ-59" vertex="1">
          <mxGeometry x="8" y="68.61" width="63" height="40" as="geometry" />
        </mxCell>
        <mxCell id="2n91kEc1MEfVxPzDMiQJ-64" value="定义类的&#xa;层级体系" style="rounded=0;fontFamily=Helvetica;fontSize=14;fontStyle=1;" parent="2n91kEc1MEfVxPzDMiQJ-59" vertex="1">
          <mxGeometry x="279" y="67" width="69" height="44.61" as="geometry" />
        </mxCell>
        <mxCell id="2n91kEc1MEfVxPzDMiQJ-65" value="创建相应&#xa;实例及关联" style="rounded=0;fontFamily=Helvetica;fontSize=14;fontStyle=1;" parent="2n91kEc1MEfVxPzDMiQJ-59" vertex="1">
          <mxGeometry x="373" y="66.59" width="81" height="44.83" as="geometry" />
        </mxCell>
        <mxCell id="2n91kEc1MEfVxPzDMiQJ-66" value="" style="edgeStyle=orthogonalEdgeStyle;rounded=0;orthogonalLoop=1;jettySize=auto;exitX=1;exitY=0.5;exitDx=0;exitDy=0;fontFamily=Helvetica;entryX=0;entryY=0.5;entryDx=0;entryDy=0;fontStyle=1;" parent="2n91kEc1MEfVxPzDMiQJ-59" source="2n91kEc1MEfVxPzDMiQJ-64" target="2n91kEc1MEfVxPzDMiQJ-65" edge="1">
          <mxGeometry relative="1" as="geometry">
            <mxPoint x="336" y="87.54172413793104" as="sourcePoint" />
            <mxPoint x="384" y="87.9882758620689" as="targetPoint" />
            <Array as="points">
              <mxPoint x="354" y="88" />
            </Array>
          </mxGeometry>
        </mxCell>
        <mxCell id="2n91kEc1MEfVxPzDMiQJ-67" value="" style="edgeStyle=orthogonalEdgeStyle;rounded=0;orthogonalLoop=1;jettySize=auto;exitX=1;exitY=0.5;exitDx=0;exitDy=0;entryX=0;entryY=0.5;entryDx=0;entryDy=0;fontFamily=Helvetica;fontStyle=1;" parent="2n91kEc1MEfVxPzDMiQJ-59" source="2n91kEc1MEfVxPzDMiQJ-68" target="2n91kEc1MEfVxPzDMiQJ-64" edge="1">
          <mxGeometry relative="1" as="geometry" />
        </mxCell>
        <mxCell id="2n91kEc1MEfVxPzDMiQJ-68" value="抽取领域&#xa;重要术语" style="rounded=0;fontFamily=Helvetica;fontSize=14;fontStyle=1;" parent="2n91kEc1MEfVxPzDMiQJ-59" vertex="1">
          <mxGeometry x="193" y="68.84" width="64" height="40.09" as="geometry" />
        </mxCell>
        <mxCell id="2n91kEc1MEfVxPzDMiQJ-69" value="" style="edgeStyle=orthogonalEdgeStyle;rounded=0;orthogonalLoop=1;jettySize=auto;exitX=1;exitY=0.5;exitDx=0;exitDy=0;entryX=0;entryY=0.5;entryDx=0;entryDy=0;fontFamily=Helvetica;fontStyle=1;" parent="2n91kEc1MEfVxPzDMiQJ-59" source="2n91kEc1MEfVxPzDMiQJ-70" target="2n91kEc1MEfVxPzDMiQJ-68" edge="1">
          <mxGeometry relative="1" as="geometry" />
        </mxCell>
        <mxCell id="2n91kEc1MEfVxPzDMiQJ-70" value="复用现有&#xa;知识本体" style="rounded=0;fontFamily=Helvetica;fontSize=14;fontStyle=1;" parent="2n91kEc1MEfVxPzDMiQJ-59" vertex="1">
          <mxGeometry x="95" y="68" width="68.5" height="40.64" as="geometry" />
        </mxCell>
        <mxCell id="2n91kEc1MEfVxPzDMiQJ-71" value="本体构建" style="rounded=1;fontFamily=Helvetica;fontStyle=1;fontSize=14;" parent="1" vertex="1">
          <mxGeometry x="72.5" y="-508.53" width="86.5" height="37.69" as="geometry" />
        </mxCell>
        <mxCell id="2n91kEc1MEfVxPzDMiQJ-72" value="" style="endArrow=classic;rounded=0;fontFamily=Helvetica;fontStyle=1;" parent="1" edge="1">
          <mxGeometry width="50" height="50" relative="1" as="geometry">
            <mxPoint x="174.25" y="-487.18999999999994" as="sourcePoint" />
            <mxPoint x="244.25" y="-487.18999999999994" as="targetPoint" />
          </mxGeometry>
        </mxCell>
        <mxCell id="2n91kEc1MEfVxPzDMiQJ-75" value="领域自适应&#xa;方法" style="text;strokeColor=none;fillColor=none;align=center;verticalAlign=middle;rounded=0;fontFamily=Helvetica;fontSize=14;fontStyle=1;" parent="1" vertex="1">
          <mxGeometry x="164.25" y="-758" width="90" height="30" as="geometry" />
        </mxCell>
        <mxCell id="2n91kEc1MEfVxPzDMiQJ-77" value="" style="shape=singleArrow;direction=south;arrowWidth=0.3787886186079561;arrowSize=0.4;noLabel=0;fontFamily=Helvetica;fontStyle=1;" parent="1" vertex="1">
          <mxGeometry x="105.15" y="-850" width="30.71" height="59.5" as="geometry" />
        </mxCell>
        <mxCell id="2n91kEc1MEfVxPzDMiQJ-79" value="本体知识推理" style="text;strokeColor=none;fillColor=none;align=center;verticalAlign=middle;rounded=0;fontFamily=Helvetica;fontSize=14;fontStyle=1;" parent="1" vertex="1">
          <mxGeometry x="164.25" y="-516" width="95.75" height="30" as="geometry" />
        </mxCell>
        <mxCell id="2n91kEc1MEfVxPzDMiQJ-80" value="" style="shape=curlyBracket;rounded=1;flipH=1;labelPosition=right;verticalLabelPosition=middle;align=left;verticalAlign=middle;fontFamily=Helvetica;fontStyle=1;" parent="1" vertex="1">
          <mxGeometry x="739" y="-990" width="20" height="570" as="geometry" />
        </mxCell>
        <mxCell id="2n91kEc1MEfVxPzDMiQJ-81" value="" style="shape=table;startSize=0;container=1;collapsible=0;childLayout=tableLayout;fontSize=16;fontFamily=Helvetica;fontStyle=1;" parent="1" vertex="1">
          <mxGeometry x="770" y="-991.3800000000001" width="129.92594401041663" height="571.38" as="geometry" />
        </mxCell>
        <mxCell id="2n91kEc1MEfVxPzDMiQJ-82" value="" style="shape=tableRow;horizontal=0;startSize=0;swimlaneHead=0;swimlaneBody=0;strokeColor=inherit;top=0;left=0;bottom=0;right=0;collapsible=0;dropTarget=0;fillColor=none;points=[[0,0.5],[1,0.5]];portConstraint=eastwest;fontSize=16;fontFamily=Helvetica;fontStyle=1;" parent="2n91kEc1MEfVxPzDMiQJ-81" vertex="1">
          <mxGeometry width="129.92594401041663" height="191" as="geometry" />
        </mxCell>
        <mxCell id="2n91kEc1MEfVxPzDMiQJ-83" value="html&#xa;css&#xa;javascript&#xa;前端&#xa;开发&#xa;" style="shape=partialRectangle;connectable=0;strokeColor=inherit;overflow=hidden;fillColor=none;top=0;left=0;bottom=0;right=0;pointerEvents=1;fontSize=14;fontFamily=Helvetica;fontStyle=1;" parent="2n91kEc1MEfVxPzDMiQJ-82" vertex="1">
          <mxGeometry width="80" height="191" as="geometry">
            <mxRectangle width="80" height="191" as="alternateBounds" />
          </mxGeometry>
        </mxCell>
        <mxCell id="2n91kEc1MEfVxPzDMiQJ-84" value="输&#xa;气&#xa;管&#xa;道&#xa;智&#xa;能&#xa;在&#xa;线&#xa;诊&#xa;断&#xa;WEB&#xa;应&#xa;用" style="shape=partialRectangle;connectable=0;strokeColor=inherit;overflow=hidden;fillColor=none;top=0;left=0;bottom=0;right=0;pointerEvents=1;fontSize=16;rowspan=3;colspan=1;fontFamily=Helvetica;fontStyle=1;" parent="2n91kEc1MEfVxPzDMiQJ-82" vertex="1">
          <mxGeometry x="80" width="50" height="571" as="geometry">
            <mxRectangle width="50" height="191" as="alternateBounds" />
          </mxGeometry>
        </mxCell>
        <mxCell id="2n91kEc1MEfVxPzDMiQJ-85" value="" style="shape=tableRow;horizontal=0;startSize=0;swimlaneHead=0;swimlaneBody=0;strokeColor=inherit;top=0;left=0;bottom=0;right=0;collapsible=0;dropTarget=0;fillColor=none;points=[[0,0.5],[1,0.5]];portConstraint=eastwest;fontSize=16;fontFamily=Helvetica;fontStyle=1;" parent="2n91kEc1MEfVxPzDMiQJ-81" vertex="1">
          <mxGeometry y="191" width="129.92594401041663" height="189" as="geometry" />
        </mxCell>
        <mxCell id="2n91kEc1MEfVxPzDMiQJ-86" value="python&#xa;FastAPI&#xa;后端&#xa;开发" style="shape=partialRectangle;connectable=0;strokeColor=inherit;overflow=hidden;fillColor=none;top=0;left=0;bottom=0;right=0;pointerEvents=1;fontSize=14;fontFamily=Helvetica;fontStyle=1;" parent="2n91kEc1MEfVxPzDMiQJ-85" vertex="1">
          <mxGeometry width="80" height="189" as="geometry">
            <mxRectangle width="80" height="189" as="alternateBounds" />
          </mxGeometry>
        </mxCell>
        <mxCell id="2n91kEc1MEfVxPzDMiQJ-87" value="" style="shape=partialRectangle;html=1;whiteSpace=wrap;connectable=0;strokeColor=inherit;overflow=hidden;fillColor=none;top=0;left=0;bottom=0;right=0;pointerEvents=1;fontSize=16;" parent="2n91kEc1MEfVxPzDMiQJ-85" vertex="1" visible="0">
          <mxGeometry x="80" width="50" height="189" as="geometry">
            <mxRectangle width="50" height="189" as="alternateBounds" />
          </mxGeometry>
        </mxCell>
        <mxCell id="2n91kEc1MEfVxPzDMiQJ-88" value="" style="shape=tableRow;horizontal=0;startSize=0;swimlaneHead=0;swimlaneBody=0;strokeColor=inherit;top=0;left=0;bottom=0;right=0;collapsible=0;dropTarget=0;fillColor=none;points=[[0,0.5],[1,0.5]];portConstraint=eastwest;fontSize=16;fontFamily=Helvetica;fontStyle=1;" parent="2n91kEc1MEfVxPzDMiQJ-81" vertex="1">
          <mxGeometry y="380" width="129.92594401041663" height="191" as="geometry" />
        </mxCell>
        <mxCell id="2n91kEc1MEfVxPzDMiQJ-89" value="MYSQL&#xa;数据库" style="shape=partialRectangle;connectable=0;strokeColor=inherit;overflow=hidden;fillColor=none;top=0;left=0;bottom=0;right=0;pointerEvents=1;fontSize=14;fontFamily=Helvetica;fontStyle=1;" parent="2n91kEc1MEfVxPzDMiQJ-88" vertex="1">
          <mxGeometry width="80" height="191" as="geometry">
            <mxRectangle width="80" height="191" as="alternateBounds" />
          </mxGeometry>
        </mxCell>
        <mxCell id="2n91kEc1MEfVxPzDMiQJ-90" value="" style="shape=partialRectangle;html=1;whiteSpace=wrap;connectable=0;strokeColor=inherit;overflow=hidden;fillColor=none;top=0;left=0;bottom=0;right=0;pointerEvents=1;fontSize=16;" parent="2n91kEc1MEfVxPzDMiQJ-88" vertex="1" visible="0">
          <mxGeometry x="80" width="50" height="191" as="geometry">
            <mxRectangle width="50" height="191" as="alternateBounds" />
          </mxGeometry>
        </mxCell>
        <mxCell id="2n91kEc1MEfVxPzDMiQJ-95" value="改进模拟数据不足" style="text;strokeColor=none;fillColor=none;align=center;verticalAlign=middle;rounded=0;fontStyle=1;fontFamily=Helvetica;fontSize=16;" parent="1" vertex="1">
          <mxGeometry x="540" y="-837.62" width="90" height="30" as="geometry" />
        </mxCell>
        <mxCell id="2n91kEc1MEfVxPzDMiQJ-96" value="与已有专业知识&#xa;建立联系" style="text;strokeColor=none;fillColor=none;align=center;verticalAlign=middle;rounded=0;fontStyle=1;fontFamily=Helvetica;fontSize=16;" parent="1" vertex="1">
          <mxGeometry x="530" y="-614" width="90" height="30" as="geometry" />
        </mxCell>
        <mxCell id="zsT4bbfBKMu0EkgSFM5R-5" value="" style="shape=curlyBracket;rounded=1;labelPosition=left;verticalLabelPosition=middle;align=right;verticalAlign=middle;" vertex="1" parent="1">
          <mxGeometry x="345" y="-938" width="6" height="58" as="geometry" />
        </mxCell>
        <mxCell id="zsT4bbfBKMu0EkgSFM5R-7" value="" style="shape=singleArrow;direction=south;arrowWidth=0.3787886186079561;arrowSize=0.4;noLabel=0;fontFamily=Helvetica;fontStyle=1;" vertex="1" parent="1">
          <mxGeometry x="470" y="-850" width="30.71" height="59.5" as="geometry" />
        </mxCell>
        <mxCell id="zsT4bbfBKMu0EkgSFM5R-8" value="" style="shape=singleArrow;direction=south;arrowWidth=0.3787886186079561;arrowSize=0.4;noLabel=0;fontFamily=Helvetica;fontStyle=1;" vertex="1" parent="1">
          <mxGeometry x="105.15" y="-630" width="30.71" height="59.5" as="geometry" />
        </mxCell>
        <mxCell id="zsT4bbfBKMu0EkgSFM5R-10" value="" style="shape=singleArrow;direction=south;arrowWidth=0.3787886186079561;arrowSize=0.4;noLabel=0;fontFamily=Helvetica;fontStyle=1;" vertex="1" parent="1">
          <mxGeometry x="470" y="-630" width="30.71" height="59.5" as="geometry" />
        </mxCell>
      </root>
    </mxGraphModel>
  </diagram>
</mxfile>
